# xmcd CD database file
#
# Track frame offsets:
#	150
#	12607
#	26437
#	41137
#	53067
#	66032
#	80415
#	94675
#	110312
#	121317
#	135672
#
# Disc length: 2067 seconds
#
# Revision: 3
# Processed by: cddbd v1.4PL0 Copyright (c) Steve Scherf et al.
# Submitted via: CDex 1.50
#
DISCID=8b08110b
DTITLE=Rick Trevino - Rick Trevino
DYEAR=1994
DGENRE=Country
TTITLE0=Honky Tonk Crowd
TTITLE1=Doctor Time
TTITLE2=She Can't Say I Didn't Cry
TTITLE3=Walk Out Backwards
TTITLE4=Life Can Turn On A Dime
TTITLE5=Just Enough Rope
TTITLE6=She Just Left Me Lounge
TTITLE7=What I'll Know Then
TTITLE8=It Only Hurts When I Laugh
TTITLE9=Un Momento Alla  (Sung In Spanish)
TTITLE10=Just Enough Rope (Bilingual)
EXTD=YEAR: 1994
EXTT0=
EXTT1=
EXTT2=
EXTT3=
EXTT4=
EXTT5=
EXTT6=
EXTT7=
EXTT8=
EXTT9=
EXTT10=
PLAYORDER=
